<svg width="35" height="35" viewBox="0 0 35 35" fill="none" xmlns="http://www.w3.org/2000/svg"><g stroke="#009CE5" stroke-width="1.5" stroke-linecap="round" stroke-linejoin="round"><path d="M6.5459 8.18408H33.0001L30.1748 20.9389C30.0037 21.7171 29.314 22.269 28.5193 22.269H9.912"/><path d="M5.5249 4.21582L6.52921 8.33863L10.6458 25.2548C10.8389 26.0496 11.5673 26.607 12.4006 26.607H29.0821"/><path d="M28.8117 29.041C28.8117 27.6944 27.7191 26.6016 26.3726 26.6016C25.0262 26.6016 23.9336 27.6944 23.9336 29.041C23.9336 30.3877 25.0262 31.4805 26.3726 31.4805C27.7191 31.4805 28.8117 30.3877 28.8117 29.041Z"/><path d="M16.0812 29.041C16.0812 27.6944 14.9886 26.6016 13.6422 26.6016C12.2957 26.6016 11.2031 27.6944 11.2031 29.041C11.2031 30.3877 12.2957 31.4805 13.6422 31.4805C14.9886 31.4805 16.0812 30.3877 16.0812 29.041Z"/><path d="M5.52492 4.21582H1"/><path d="M12.1577 8.18408L13.8904 22.269"/><path d="M17.4663 8.18408L18.0402 22.269"/><path d="M22.7692 8.18408L22.1953 22.269"/><path d="M28.0774 8.18408L26.3447 22.269"/><path d="M7.65479 12.9634H12.7481H17.6648H22.576H27.4927H31.9459"/><path d="M8.7915 17.6436H13.3219H17.8579H22.3828H26.9188H30.9084"/></g></svg>
